<svg height="542" width="720" xmlns="http://www.w3.org/2000/svg">
<rect height="542" fill="#555" width="720"></rect>
<text fill="#7f7" font-family="Courier New" font-size="12" xml:space="preserve">
<tspan x="10" y="26">3 megabytes installed</tspan>
<tspan x="10" y="42"></tspan>
<tspan x="10" y="58">node_modules</tspan>
<tspan x="10" y="74">└─┬ is-reachable@2.3.2 </tspan>
<tspan x="10" y="90">  ├── arrify@1.0.1 </tspan>
<tspan x="10" y="106">  ├─┬ got@6.7.1 </tspan>
<tspan x="10" y="122">  │ ├─┬ create-error-class@3.0.2 </tspan>
<tspan x="10" y="138">  │ │ └── capture-stack-trace@1.0.0 </tspan>
<tspan x="10" y="154">  │ ├── duplexer3@0.1.4 </tspan>
<tspan x="10" y="170">  │ ├── get-stream@3.0.0 </tspan>
<tspan x="10" y="186">  │ ├── is-redirect@1.0.0 </tspan>
<tspan x="10" y="202">  │ ├── is-retry-allowed@1.1.0 </tspan>
<tspan x="10" y="218">  │ ├── is-stream@1.1.0 </tspan>
<tspan x="10" y="234">  │ ├── lowercase-keys@1.0.0 </tspan>
<tspan x="10" y="250">  │ ├── safe-buffer@5.0.1 </tspan>
<tspan x="10" y="266">  │ ├── timed-out@4.0.1 </tspan>
<tspan x="10" y="282">  │ ├── unzip-response@2.0.1 </tspan>
<tspan x="10" y="298">  │ └── url-parse-lax@1.0.0 </tspan>
<tspan x="10" y="314">  ├── is-port-reachable@2.0.0 </tspan>
<tspan x="10" y="330">  ├─┬ p-any@1.0.0 </tspan>
<tspan x="10" y="346">  │ └─┬ p-some@1.1.0 </tspan>
<tspan x="10" y="362">  │   └─┬ aggregate-error@1.0.0 </tspan>
<tspan x="10" y="378">  │     ├── clean-stack@1.1.1 </tspan>
<tspan x="10" y="394">  │     └── indent-string@3.1.0 </tspan>
<tspan x="10" y="410">  ├── p-timeout@1.0.0 </tspan>
<tspan x="10" y="426">  ├── pify@2.3.0 </tspan>
<tspan x="10" y="442">  ├── port-numbers@1.2.4 </tspan>
<tspan x="10" y="458">  ├── prepend-http@1.0.4 </tspan>
<tspan x="10" y="474">  ├── router-ips@1.0.0 </tspan>
<tspan x="10" y="490">  └─┬ url-parse@1.1.8 </tspan>
<tspan x="10" y="506">    ├── querystringify@0.0.4 </tspan>
<tspan x="10" y="522">    └── requires-port@1.0.0</tspan>
</text>
</svg>
